<svg width="100" height="100" fill="none" xmlns="http://www.w3.org/2000/svg"><circle opacity=".6" cx="50" cy="50" r="49" fill="#DEDEFF" fill-opacity=".4" stroke="#3035C4" stroke-width="2"/><g clip-path="url(#clip0_1_2261)"><path d="M52.342 33.27h-5.797v-6.805h1.221a.732.732 0 100-1.465H32.998a.733.733 0 100 1.465h1.22v6.805h-5.796A3.426 3.426 0 0025 36.69v31.731a3.427 3.427 0 002.93 3.386v.995A2.2 2.2 0 0030.127 75a2.2 2.2 0 002.198-2.197v-.96h16.114v.96A2.2 2.2 0 0050.637 75a2.2 2.2 0 002.197-2.197v-.995a3.427 3.427 0 002.93-3.386V42.267a.732.732 0 00-1.465 0v26.155a1.96 1.96 0 01-1.957 1.957h-23.92a1.96 1.96 0 01-1.957-1.957v-31.73a1.96 1.96 0 011.957-1.958h23.92a1.96 1.96 0 011.957 1.957v2.147a.732.732 0 001.465 0v-2.147a3.426 3.426 0 00-3.422-3.421zm-.973 38.574v.959a.733.733 0 01-1.465 0v-.96h1.465zm-20.51 0v.959a.733.733 0 01-1.464 0v-.96h1.465zm4.824-45.38h9.398v6.806h-9.398v-6.805z" fill="#3035C4"/><path fill-rule="evenodd" clip-rule="evenodd" d="M32.015 25.732c0-.542.44-.982.983-.982h14.768a.983.983 0 010 1.965h-.97v6.305h5.546a3.676 3.676 0 013.672 3.671v2.147a.982.982 0 01-1.965 0v-2.147a1.71 1.71 0 00-1.707-1.707h-23.92a1.71 1.71 0 00-1.707 1.707v31.731a1.71 1.71 0 001.707 1.707h23.92a1.71 1.71 0 001.707-1.707V42.267a.982.982 0 011.965 0v26.155a3.678 3.678 0 01-2.93 3.596v.785a2.45 2.45 0 01-2.447 2.447 2.45 2.45 0 01-2.448-2.447v-.71H32.575v.71a2.45 2.45 0 01-2.448 2.447 2.45 2.45 0 01-2.447-2.447v-.785a3.678 3.678 0 01-2.93-3.596v-31.73a3.676 3.676 0 013.672-3.672h5.546v-6.305h-.97a.982.982 0 01-.983-.983zm.983-.482a.483.483 0 100 .965h1.47v7.305h-6.046a3.176 3.176 0 00-3.172 3.171v31.731a3.177 3.177 0 002.716 3.14l.214.03v1.21a1.95 1.95 0 001.947 1.948 1.95 1.95 0 001.948-1.947v-1.21h16.614v1.21a1.95 1.95 0 001.948 1.947 1.95 1.95 0 001.947-1.947v-1.21l.214-.032a3.177 3.177 0 002.716-3.139V42.267a.482.482 0 00-.965 0v26.155a2.21 2.21 0 01-2.207 2.207h-23.92a2.21 2.21 0 01-2.207-2.207v-31.73a2.21 2.21 0 012.207-2.208h23.92a2.21 2.21 0 012.207 2.207v2.147a.482.482 0 00.965 0v-2.147a3.176 3.176 0 00-3.172-3.171h-6.047v-7.305h1.471a.482.482 0 100-.965H32.998zm2.435.965h9.898v7.305h-9.898v-7.305zm.5.5v6.305h8.898v-6.305h-8.898zm-6.788 44.879h1.965v1.209a.983.983 0 01-1.965 0v-1.21zm.5.5v.709a.483.483 0 00.965 0v-.71h-.965zm20.009-.5h1.965v1.209a.983.983 0 01-1.965 0v-1.21zm.5.5v.709a.483.483 0 00.965 0v-.71h-.965z" fill="#3035C4"/><path d="M34.94 68.914h17.162a.732.732 0 00.732-.732V51.873a.732.732 0 00-.733-.732H28.664a.733.733 0 00-.733.732v16.309c0 .404.328.732.733.732h2.93a.733.733 0 000-1.465h-2.198V52.606H51.37v14.843H34.94a.733.733 0 000 1.465z" fill="#3035C4"/><path fill-rule="evenodd" clip-rule="evenodd" d="M27.68 51.873c0-.543.44-.982.983-.982h23.439c.542 0 .982.44.982.982v16.309c0 .542-.44.982-.983.982H34.94a.983.983 0 010-1.965h16.179V52.856H29.645v14.343h1.947a.983.983 0 110 1.965h-2.93a.983.983 0 01-.982-.982V51.873zm.983-.482a.483.483 0 00-.483.482v16.309c0 .266.216.482.483.482h2.93a.483.483 0 000-.965h-2.448V52.356h22.474v15.343h-16.68a.483.483 0 000 .965h17.163a.482.482 0 00.482-.482V51.873a.482.482 0 00-.483-.482H28.664z" fill="#3035C4"/><path d="M46.828 58.61a.732.732 0 00.732-.731v-2.38h1.612a.732.732 0 100-1.464h-17.58a.732.732 0 100 1.465h14.503v2.379c0 .404.328.732.733.732z" fill="#E6514A"/><path fill-rule="evenodd" clip-rule="evenodd" d="M30.61 54.767c0-.543.44-.982.982-.982h17.58a.982.982 0 110 1.965H47.81v2.129a.983.983 0 01-1.965 0v-2.13H31.592a.982.982 0 01-.982-.982zm.982-.482a.482.482 0 100 .965h14.753v2.629a.482.482 0 00.965 0v-2.63h1.862a.482.482 0 100-.964h-17.58z" fill="#E6514A"/><path d="M45.265 44.981a.733.733 0 00.733-.732v-2.93a.732.732 0 00-.733-.732h-9.766a.732.732 0 00-.733.732v2.93c0 .404.328.732.733.732h9.766zm-9.034-2.93h8.301v1.466h-8.3v-1.465z" fill="#E6514A"/><path fill-rule="evenodd" clip-rule="evenodd" d="M34.516 41.32c0-.543.44-.983.983-.983h9.766c.543 0 .983.44.983.982v2.93c0 .543-.44.982-.983.982h-9.766a.982.982 0 01-.983-.982v-2.93zm.983-.483a.483.483 0 00-.483.482v2.93c0 .266.216.482.483.482h9.766a.483.483 0 00.483-.482v-2.93a.482.482 0 00-.483-.482h-9.766zm.482.965h8.801v1.965h-8.8v-1.965zm.5.5v.965h7.801v-.965h-7.8z" fill="#E6514A"/><path d="M71.578 47.887h-5.822v-2.786a2.333 2.333 0 00-2.33-2.33h-5.513a.732.732 0 100 1.465h5.513c.477 0 .865.388.865.865v2.786h-6.378a.732.732 0 100 1.465h6.378v1.464l-1.548 1.577a.732.732 0 00-.21.513V57.4c0 .404.328.732.733.732h3.515a.733.733 0 00.733-.732v-4.493a.732.732 0 00-.21-.513l-1.548-1.577v-1.464h5.822a1.96 1.96 0 011.957 1.957v11.542h-2.492a.732.732 0 100 1.465h2.492v1.93H57.913a.732.732 0 100 1.465h15.622v.711a1.96 1.96 0 01-1.957 1.957H57.913a.732.732 0 100 1.465h10.002v.959A2.2 2.2 0 0070.113 75a2.2 2.2 0 002.197-2.197v-1.038A3.428 3.428 0 0075 68.422V51.309a3.426 3.426 0 00-3.422-3.422zm-5.53 8.78h-2.05v-3.461l1.025-1.045 1.026 1.045v3.46zm4.797 16.136a.733.733 0 01-1.465 0v-.96h1.465v.96z" fill="#3035C4"/><path fill-rule="evenodd" clip-rule="evenodd" d="M56.93 43.503c0-.542.44-.982.983-.982h5.513a2.583 2.583 0 012.58 2.58v2.536h5.572a3.676 3.676 0 013.672 3.672v17.113a3.678 3.678 0 01-2.69 3.538v.843a2.45 2.45 0 01-2.447 2.447 2.45 2.45 0 01-2.448-2.447v-.71h-9.752a.982.982 0 110-1.964h13.665a1.71 1.71 0 001.707-1.707v-.46H57.913a.982.982 0 110-1.966h15.372v-1.43h-2.242a.982.982 0 110-1.965h2.242V51.31a1.71 1.71 0 00-1.707-1.707h-5.572v1.112l1.477 1.504c.18.184.281.431.281.688V57.4c0 .542-.44.982-.983.982h-3.516a.983.983 0 01-.982-.982v-4.493c0-.257.101-.504.281-.688l1.477-1.504v-1.112h-6.128a.982.982 0 110-1.965h6.128v-2.536a.616.616 0 00-.615-.615h-5.513a.982.982 0 01-.983-.983zm.983-.482a.482.482 0 100 .965h5.513c.615 0 1.115.5 1.115 1.115v3.036h-6.628a.482.482 0 100 .965h6.628v1.817l-1.62 1.65a.483.483 0 00-.138.337V57.4c0 .266.216.482.483.482h3.515a.483.483 0 00.483-.482v-4.493a.483.483 0 00-.138-.337l-1.62-1.65v-1.817h6.072a2.21 2.21 0 012.207 2.207v11.792h-2.742a.482.482 0 100 .965h2.742v2.43H57.913a.482.482 0 100 .965h15.872v.961a2.21 2.21 0 01-2.207 2.207H57.913a.482.482 0 100 .965h10.252v1.209a1.95 1.95 0 001.948 1.947 1.95 1.95 0 001.947-1.947v-1.24l.197-.042a3.178 3.178 0 002.493-3.099V51.309a3.176 3.176 0 00-3.172-3.172h-6.072v-3.036c0-1.147-.933-2.08-2.08-2.08h-5.513zm7.11 8.783l1.276 1.3v3.812h-2.551v-3.812l1.275-1.3zm-.775 1.504v3.108h1.55v-3.108l-.775-.79-.775.79zm4.882 18.286h1.965v1.209a.983.983 0 01-1.965 0v-1.21zm1.465 1.218v-.718h-.965v.709a.483.483 0 00.965.01z" fill="#3035C4"/><path d="M57.913 64.316h9.745a.732.732 0 100-1.464h-9.745a.732.732 0 100 1.464z" fill="#3035C4"/><path fill-rule="evenodd" clip-rule="evenodd" d="M56.93 63.584c0-.543.44-.982.983-.982h9.745a.982.982 0 110 1.964h-9.745a.982.982 0 01-.983-.982zm.983-.482a.482.482 0 100 .964h9.745a.482.482 0 100-.964h-9.745z" fill="#3035C4"/></g><defs><clipPath id="clip0_1_2261"><path fill="#fff" transform="translate(25 25)" d="M0 0h50v50H0z"/></clipPath></defs></svg>