<svg width="16" height="16" fill="none" xmlns="http://www.w3.org/2000/svg"><rect width="16" height="16" rx="8" fill="#E6514A"/><path d="M12.022 10.45l-1.3-1.303a.677.677 0 00-.957.018l-.655.656a19.03 19.03 0 01-.13-.072c-.413-.23-.98-.545-1.575-1.142-.598-.6-.912-1.168-1.142-1.583l-.07-.126.439-.44.216-.217a.68.68 0 00.018-.959l-1.3-1.303a.676.676 0 00-.957.018l-.367.37.01.01a2.126 2.126 0 00-.302.533c-.07.186-.114.364-.134.542-.172 1.427.479 2.73 2.244 4.5 2.44 2.446 4.408 2.261 4.493 2.252a2.188 2.188 0 001.072-.438l.008.007.372-.364c.267-.27.275-.7.017-.959z" fill="#fff"/></svg>