<svg aria-hidden="true" style="position:absolute;width:0;height:0" xmlns="http://www.w3.org/2000/svg" overflow="hidden"><defs><symbol id="icon-call" viewBox="0 0 32 32"><path d="M18.713 20.781l-1.822 1.908a.849.849 0 01-1.086.125l-.011-.01a22.59 22.59 0 01-6.281-6.58l-.017-.019a.955.955 0 01.118-1.139l1.822-1.908c.87-.912.88-2.332.023-3.23L8.565 6.896a2.117 2.117 0 00-3.092-.016l-.761.797c-3.116 3.265-3.606 8.34-1.164 12.068l1.127 1.721a24.108 24.108 0 006.107 6.398l1.643 1.18c3.559 2.558 8.403 2.045 11.52-1.22l.747-.782a2.368 2.368 0 00.014-3.239l-2.908-3.047c-.857-.897-2.212-.888-3.083.024zm4.937 4.097a.774.774 0 01.017 1.059l-.016.017-.747.782c-2.616 2.74-6.673 3.177-9.649 1.039l-1.642-1.18a22.577 22.577 0 01-5.727-6l-1.127-1.72c-2.041-3.117-1.624-7.368.992-10.108l.747-.782a.692.692 0 011.011-.017l2.911 3.049c.283.297.274.74-.023 1.051l-1.822 1.908c-.781.823-.907 2.106-.304 3.08l.01.013a24.08 24.08 0 006.688 7.006l.02.019c.93.633 2.154.501 2.942-.317l1.821-1.908c.297-.311.72-.321 1.004-.024l2.894 3.032zM14.004 2.114c.005.425.338.766.743.761 3.727-.046 7.212 1.43 9.814 4.156s4.011 6.378 3.967 10.281c-.007.425.317.775.723.782s.74-.332.747-.757v-.007c.049-4.322-1.513-8.367-4.398-11.389s-6.745-4.658-10.871-4.607c-.406.005-.731.354-.726.779z"/><path d="M14.674 6.345c-.264 0-.507.148-.638.388s-.129.535.005.773a.728.728 0 00.643.379h.007c4.916-.089 8.971 4.014 9.056 9.165.002.107.002.214 0 .322-.007.425.317.776.723.782s.74-.332.747-.757v-.007c.095-6.001-4.472-10.945-10.2-11.045a9.748 9.748 0 00-.342 0z"/><path stroke-width="1.12" d="M18.713 20.781l-1.822 1.908a.849.849 0 01-1.086.125l-.011-.01a22.59 22.59 0 01-6.281-6.58l-.017-.019a.955.955 0 01.118-1.139l1.822-1.908c.87-.912.88-2.332.023-3.23L8.565 6.896a2.117 2.117 0 00-3.092-.016l-.761.797c-3.116 3.265-3.606 8.34-1.164 12.068l1.127 1.721a24.108 24.108 0 006.107 6.398l1.643 1.18c3.559 2.558 8.403 2.045 11.52-1.22l.747-.782a2.368 2.368 0 00.014-3.239l-2.908-3.047c-.857-.897-2.212-.888-3.083.024zm4.937 4.097a.774.774 0 01.017 1.059l-.016.017-.747.782c-2.616 2.74-6.673 3.177-9.649 1.039l-1.642-1.18a22.577 22.577 0 01-5.727-6l-1.127-1.72c-2.041-3.117-1.624-7.368.992-10.108l.747-.782a.692.692 0 011.011-.017l2.911 3.049c.283.297.274.74-.023 1.051l-1.822 1.908c-.781.823-.907 2.106-.304 3.08l.01.013a24.08 24.08 0 006.688 7.006l.02.019c.93.633 2.154.501 2.942-.317l1.821-1.908c.297-.311.72-.321 1.004-.024l2.894 3.032zM14.004 2.114c.005.425.338.766.743.761 3.727-.046 7.212 1.43 9.814 4.156s4.011 6.378 3.967 10.281c-.007.425.317.775.723.782s.74-.332.747-.757v-.007c.049-4.322-1.513-8.367-4.398-11.389s-6.745-4.658-10.871-4.607c-.406.005-.731.354-.726.779z"/><path stroke-width="1.12" d="M14.674 6.345c-.264 0-.507.148-.638.388s-.129.535.005.773a.728.728 0 00.643.379h.007c4.916-.089 8.971 4.014 9.056 9.165.002.107.002.214 0 .322-.007.425.317.776.723.782s.74-.332.747-.757v-.007c.095-6.001-4.472-10.945-10.2-11.045a9.748 9.748 0 00-.342 0z"/></symbol><symbol id="icon-facebook" viewBox="0 0 32 32"><path d="M8.94 16.938h3.125v12.997c0 .257.206.465.46.465h5.298c.254 0 .46-.208.46-.465V17h3.592c.234 0 .43-.177.457-.411l.546-4.785a.463.463 0 00-.457-.517h-4.138V8.288c0-.904.482-1.363 1.432-1.363h2.705c.254 0 .46-.208.46-.465V2.068a.462.462 0 00-.46-.465h-3.728a4.423 4.423 0 00-.171-.003c-.647 0-2.896.128-4.672 1.779-1.968 1.829-1.694 4.02-1.629 4.4v3.507H8.94a.462.462 0 00-.46.465v4.724c0 .257.206.465.46.465z"/><path d="M17.657 30.4h-5.139c-.562 0-1.02-.457-1.02-1.02V17.475H9.041c-.562 0-1.02-.457-1.02-1.02V11.92c0-.562.457-1.02 1.02-1.02h2.608V8.153c-.086-.556-.282-2.809 1.765-4.693 1.876-1.726 4.24-1.86 4.92-1.86.084 0 .144.002.179.003h3.604c.562 0 1.02.457 1.02 1.02V6.84c0 .562-.457 1.02-1.02 1.02h-2.624c-.686 0-.816.258-.816.735v2.306h3.44a1.02 1.02 0 011.013 1.136l-.529 4.594a1.02 1.02 0 01-1.013.903h-2.911V29.38c0 .562-.457 1.02-1.02 1.02zm-5.012-1.148h4.884V16.96c0-.317.257-.574.574-.574h3.371l.5-4.339h-3.87a.574.574 0 01-.574-.574v-2.88c0-1.178.734-1.882 1.963-1.882h2.497V2.749h-3.489l-.028-.001a2.082 2.082 0 00-.137-.003c-.575 0-2.573.112-4.143 1.557-1.68 1.546-1.464 3.357-1.403 3.704a.533.533 0 01.008.098v3.368a.574.574 0 01-.574.574H9.17v4.28h2.903c.317 0 .574.257.574.574v12.351z"/><path d="M13.8 22.368a.574.574 0 01-.574-.574v-.287a.574.574 0 011.148 0v.287a.574.574 0 01-.574.574zm0 6.196a.574.574 0 01-.574-.574v-4.36a.574.574 0 011.148 0v4.36a.574.574 0 01-.574.574z"/></symbol><symbol id="icon-instagram" viewBox="0 0 32 32"><path d="M21.826 29.861H10.174c-4.411 0-7.999-3.588-7.999-7.999V10.138c0-4.411 3.588-7.999 7.999-7.999h11.652c4.411 0 7.999 3.588 7.999 7.999v11.724c0 4.411-3.588 7.999-7.999 7.999zM10.174 5.426a4.718 4.718 0 00-4.712 4.712v11.724a4.718 4.718 0 004.712 4.712h11.652a4.718 4.718 0 004.712-4.712V10.138a4.718 4.718 0 00-4.712-4.712H10.174z"/><path d="M16 22.858c-3.782 0-6.858-3.077-6.858-6.858S12.219 9.142 16 9.142s6.858 3.077 6.858 6.858A6.866 6.866 0 0116 22.858zm0-10.51c-2.014 0-3.652 1.638-3.652 3.652s1.638 3.652 3.652 3.652c2.014 0 3.652-1.638 3.652-3.652S18.014 12.348 16 12.348zm7.02-2.158a1.212 1.212 0 010-2.422 1.212 1.212 0 010 2.422z"/><path d="M21.826 30.436H10.174c-4.728 0-8.574-3.846-8.574-8.574V10.138c0-4.728 3.846-8.574 8.574-8.574h11.652c4.728 0 8.574 3.846 8.574 8.574v11.724c0 4.728-3.846 8.574-8.574 8.574zM10.174 2.714c-4.094 0-7.424 3.33-7.424 7.424v11.724c0 4.094 3.33 7.424 7.424 7.424h11.652c4.093 0 7.424-3.33 7.424-7.424V10.138c0-4.094-3.33-7.424-7.424-7.424H10.174zm11.652 24.435H10.174a5.293 5.293 0 01-5.287-5.287V10.138a5.293 5.293 0 015.287-5.287h11.652a5.293 5.293 0 015.287 5.287v11.724a5.293 5.293 0 01-5.287 5.287zM10.174 6.001a4.142 4.142 0 00-4.137 4.137v11.724a4.142 4.142 0 004.137 4.137h11.652a4.142 4.142 0 004.137-4.137V10.138a4.142 4.142 0 00-4.137-4.137H10.174z"/><path d="M16 23.434c-4.099 0-7.434-3.335-7.434-7.434S11.901 8.566 16 8.566s7.433 3.335 7.433 7.434-3.335 7.434-7.433 7.434zm0-13.717c-3.465 0-6.283 2.819-6.283 6.283s2.819 6.283 6.283 6.283 6.283-2.819 6.283-6.283A6.29 6.29 0 0016 9.717zm0 10.51c-2.331 0-4.227-1.896-4.227-4.227s1.896-4.227 4.227-4.227c2.331 0 4.227 1.896 4.227 4.227S18.331 20.227 16 20.227zm0-7.304c-1.697 0-3.077 1.38-3.077 3.077s1.38 3.077 3.077 3.077 3.077-1.38 3.077-3.077-1.38-3.077-3.077-3.077z"/><path d="M23.02 10.765c-.985 0-1.786-.801-1.786-1.786s.801-1.786 1.786-1.786 1.786.801 1.786 1.786-.801 1.786-1.786 1.786zm0-2.421a.636.636 0 100 1.273.636.636 0 000-1.273zm-7.94 20.481H9.674a.574.574 0 110-1.15h5.406a.574.574 0 110 1.15zm2.185 0h-.345a.574.574 0 110-1.15h.345a.574.574 0 110 1.15z"/></symbol><symbol id="icon-play" viewBox="0 0 32 32"><path fill="var(--color2, #3035c4)" d="M15.529.941C7.212.941.47 7.683.47 16s6.742 15.059 15.059 15.059S30.588 24.317 30.588 16 23.846.941 15.529.941zM11.17 8.867L23.059 16 11.17 23.133V8.867z"/></symbol><symbol id="icon-vk" viewBox="0 0 32 32"><path d="M27.08 18.362c1.019.995 2.095 1.931 3.009 3.027.404.487.786.989 1.078 1.554.414.803.039 1.687-.681 1.735l-4.476-.002c-1.154.096-2.075-.369-2.85-1.158-.62-.631-1.194-1.303-1.789-1.955-.244-.267-.5-.518-.806-.716-.611-.397-1.141-.275-1.491.362-.356.648-.436 1.366-.471 2.088-.048 1.054-.366 1.331-1.425 1.379-2.263.107-4.41-.236-6.405-1.377-1.759-1.006-3.122-2.427-4.309-4.035-2.311-3.131-4.081-6.572-5.672-10.11-.358-.797-.096-1.225.783-1.24 1.46-.028 2.92-.026 4.382-.002.593.009.986.349 1.216.91.79 1.943 1.757 3.791 2.97 5.504.323.456.653.912 1.122 1.233.519.355.914.238 1.158-.341.155-.367.223-.761.258-1.154.116-1.351.131-2.7-.072-4.046-.125-.84-.598-1.384-1.436-1.543-.428-.081-.364-.24-.157-.484.36-.421.698-.683 1.373-.683h5.058c.796.157.973.515 1.082 1.316l.004 5.619c-.009.31.155 1.231.714 1.436.447.146.742-.212 1.01-.495 1.211-1.285 2.076-2.805 2.848-4.378.343-.692.637-1.41.923-2.128.211-.533.543-.795 1.143-.783l4.869.004c.144 0 .29.002.43.026.82.14 1.045.493.792 1.294-.399 1.257-1.176 2.304-1.935 3.357-.812 1.123-1.68 2.208-2.485 3.339-.74 1.032-.681 1.552.238 2.448z"/><path d="M16.421 25.33c-2.271 0-4.228-.487-5.963-1.479-1.652-.945-3.083-2.283-4.506-4.21-2.02-2.737-3.79-5.891-5.74-10.227-.273-.607-.282-1.118-.028-1.519s.719-.609 1.381-.62a121.75 121.75 0 014.404-.002c.818.012 1.456.476 1.795 1.306.824 2.026 1.773 3.784 2.9 5.376.282.398.574.81.962 1.075l.002.001a.14.14 0 00.208-.061l.001-.003c.108-.254.174-.56.21-.963.128-1.499.107-2.737-.067-3.894-.088-.596-.373-.907-.925-1.012-.157-.03-.633-.12-.793-.572-.158-.447.152-.813.269-.951.404-.473.907-.908 1.859-.908h5.058c.039 0 .079.003.117.011 1.274.249 1.487 1.054 1.597 1.857a.607.607 0 01.006.085l.004 5.619v.018c-.003.117.028.283.076.436a.291.291 0 00.49.11l.003-.003.055-.058c1.226-1.302 2.073-2.864 2.739-4.22.348-.703.648-1.443.903-2.082.318-.8.901-1.199 1.742-1.185l4.863.004c.168 0 .348.003.537.035.388.066.94.211 1.237.698s.174 1.042.055 1.417c-.415 1.308-1.19 2.38-1.94 3.418l-.086.119c-.384.532-.785 1.06-1.173 1.572-.436.575-.887 1.17-1.31 1.764-.283.395-.406.662-.388.842.018.183.194.431.552.78.266.26.543.522.81.775.761.72 1.547 1.465 2.243 2.299.383.462.819 1.02 1.155 1.669.322.624.327 1.328.013 1.884a1.5 1.5 0 01-1.218.78l-.042.001-4.45-.002c-1.239.095-2.358-.359-3.33-1.349-.43-.438-.84-.896-1.236-1.34-.186-.208-.379-.424-.569-.632-.188-.205-.417-.439-.682-.611-.145-.094-.276-.139-.349-.121-.069.017-.157.113-.235.255-.278.508-.359 1.092-.394 1.813-.062 1.364-.632 1.921-2.033 1.985-.266.013-.529.019-.787.019zM1.278 8.59c.006.051.028.148.097.301 1.911 4.249 3.639 7.331 5.603 9.992 1.313 1.78 2.62 3.006 4.113 3.86 1.716.982 3.697 1.404 6.058 1.293.491-.022.639-.096.683-.138.034-.032.114-.158.136-.634.038-.778.13-1.602.549-2.366.323-.59.745-.803 1.041-.878.3-.075.778-.087 1.355.288a4.8 4.8 0 01.928.82c.196.214.391.432.579.643.387.433.786.88 1.195 1.296.721.734 1.466 1.043 2.342.969a.904.904 0 01.052-.002h.001l4.449.002c.039-.005.115-.025.176-.133.075-.133.111-.389-.035-.672-.28-.54-.664-1.031-1.003-1.439-.647-.776-1.372-1.462-2.14-2.189a65.975 65.975 0 01-.824-.788c-1.155-1.127-1.237-1.984-.311-3.276.433-.608.89-1.21 1.332-1.793.383-.506.78-1.028 1.155-1.548l.086-.12c.722-1 1.405-1.945 1.758-3.057.07-.222.071-.328.068-.365-.031-.02-.127-.068-.359-.108a2.04 2.04 0 00-.323-.017l-4.869-.004h-.012c-.287-.006-.407.049-.539.381a29.46 29.46 0 01-.944 2.175c-.707 1.44-1.611 3.106-2.955 4.532l-.051.054c-.286.305-.817.873-1.621.61a.195.195 0 01-.022-.008c-.883-.325-1.142-1.508-1.131-2.042l-.004-5.567c-.028-.199-.075-.453-.155-.561-.019-.025-.075-.099-.356-.162h-4.992c-.204 0-.35.028-.48.096.733.332 1.198.983 1.331 1.884.19 1.257.214 2.59.077 4.194-.048.54-.145.968-.306 1.348-.249.589-.618.806-.885.884s-.694.095-1.221-.266c-.575-.394-.967-.947-1.282-1.391-1.185-1.673-2.179-3.515-3.04-5.632-.182-.446-.423-.509-.634-.512-1.544-.026-2.97-.025-4.36.002a1.09 1.09 0 00-.311.04z"/><path d="M4.081 11.527a.636.636 0 01-.569-.35l-.284-.568a.638.638 0 011.143-.565l.278.557a.637.637 0 01-.568.925zm4.054 6.703a.638.638 0 01-.513-.259 43.425 43.425 0 01-3.079-4.843.637.637 0 111.116-.616 42.276 42.276 0 002.989 4.702.637.637 0 01-.512 1.016z"/></symbol><symbol id="icon-youtube" viewBox="0 0 32 32"><path d="M30.366 8.502a3.759 3.759 0 00-2.644-2.644c-2.348-.642-11.738-.642-11.738-.642s-9.39 0-11.738.618a3.837 3.837 0 00-2.644 2.669C.984 10.85.984 15.719.984 15.719s0 4.893.618 7.216a3.759 3.759 0 002.644 2.644c2.372.643 11.738.643 11.738.643s9.39 0 11.738-.618a3.759 3.759 0 002.644-2.644c.618-2.348.618-7.216.618-7.216s.025-4.893-.618-7.24zM12.994 20.215V11.22l7.809 4.497-7.809 4.497z"/></symbol><symbol id="icon-play-greet" viewBox="0 0 32 32"><path d="M16 0C7.175 0 0 7.175 0 16s7.175 16 16 16 16-7.175 16-16S24.825 0 16 0zm5.154 16.808l-7.545 5.019c-.64.438-1.516-.034-1.516-.808V10.981c0-.775.876-1.246 1.516-.808l7.545 5.019c.573.371.573 1.246 0 1.617z"/></symbol></defs></svg>